<svg width="21" height="21" viewBox="0 0 21 21" fill="none" xmlns="http://www.w3.org/2000/svg">
<path d="M9.21665 2.22916C10.5233 2.22901 11.8029 2.60122 12.9056 3.30218C14.0083 4.00314 14.8884 5.00382 15.4428 6.187C15.9972 7.37017 16.203 8.68684 16.036 9.98276C15.8691 11.2787 15.3362 12.5002 14.5 13.5042L19.2417 18.2458C19.3239 18.3222 19.3841 18.4194 19.4157 18.5271C19.4474 18.6348 19.4495 18.7491 19.4217 18.8578C19.3938 18.9666 19.3372 19.0659 19.2577 19.1451C19.1782 19.2244 19.0788 19.2808 18.97 19.3083C18.8613 19.3362 18.7472 19.3342 18.6396 19.3027C18.5319 19.2712 18.4348 19.2112 18.3583 19.1292L13.6167 14.3875C12.7682 15.094 11.762 15.5857 10.6833 15.8211C9.60464 16.0565 8.48511 16.0286 7.41945 15.7399C6.3538 15.4511 5.37337 14.9099 4.56109 14.1621C3.74881 13.4143 3.12858 12.4819 2.75287 11.4437C2.37715 10.4055 2.25701 9.29207 2.40259 8.19763C2.54817 7.10318 2.95521 6.05989 3.58925 5.15602C4.2233 4.25215 5.06572 3.51427 6.04524 3.00481C7.02476 2.49536 8.11257 2.2293 9.21665 2.22916ZM3.59165 9.10416C3.59165 9.84284 3.73715 10.5743 4.01983 11.2568C4.30251 11.9392 4.71685 12.5593 5.23918 13.0816C5.76151 13.604 6.3816 14.0183 7.06406 14.301C7.74652 14.5837 8.47797 14.7292 9.21665 14.7292C9.95534 14.7292 10.6868 14.5837 11.3692 14.301C12.0517 14.0183 12.6718 13.604 13.1941 13.0816C13.7165 12.5593 14.1308 11.9392 14.4135 11.2568C14.6962 10.5743 14.8417 9.84284 14.8417 9.10416C14.8417 7.61231 14.249 6.18157 13.1941 5.12668C12.1392 4.07179 10.7085 3.47916 9.21665 3.47916C7.72481 3.47916 6.29407 4.07179 5.23918 5.12668C4.18429 6.18157 3.59165 7.61231 3.59165 9.10416Z" fill="black"/>
</svg>
