<svg width="30" height="30" viewBox="0 0 30 30" fill="none" xmlns="http://www.w3.org/2000/svg">
<ellipse cx="15.0001" cy="14.7835" rx="15" ry="14.7835" fill="#F03B7A"/>
<path d="M19.7167 14.1264C19.525 13.88 19.2917 13.6665 19.075 13.4529C18.5167 12.9602 17.8833 12.607 17.35 12.0896C16.1083 10.8905 15.8333 8.91113 16.625 7.39172C15.8333 7.58062 15.1417 8.0077 14.55 8.47584C12.3917 10.1842 11.5417 13.1983 12.5583 15.7854C12.5917 15.8676 12.625 15.9497 12.625 16.0565C12.625 16.2372 12.5 16.4014 12.3333 16.4671C12.1417 16.5493 11.9417 16.5 11.7833 16.3686C11.7358 16.3298 11.6962 16.2824 11.6667 16.2289C10.725 15.0545 10.575 13.3708 11.2083 12.0239C9.81667 13.1408 9.05833 15.0298 9.16667 16.8121C9.21667 17.2227 9.26667 17.6334 9.40833 18.044C9.525 18.5368 9.75 19.0296 10 19.4649C10.9 20.8857 12.4583 21.9042 14.1333 22.1095C15.9167 22.3312 17.825 22.0109 19.1917 20.7954C20.7167 19.432 21.25 17.2474 20.4667 15.3748L20.3583 15.1613C20.1833 14.7835 19.7167 14.1264 19.7167 14.1264ZM17.0833 19.3006C16.85 19.4977 16.4667 19.7113 16.1667 19.7934C15.2333 20.1219 14.3 19.662 13.75 19.1199C14.7417 18.89 15.3333 18.1672 15.5083 17.4363C15.65 16.7792 15.3833 16.2372 15.275 15.6048C15.175 14.997 15.1917 14.4796 15.4167 13.9129C15.575 14.225 15.7417 14.5371 15.9417 14.7835C16.5833 15.6048 17.5917 15.9661 17.8083 17.0831C17.8417 17.1981 17.8583 17.3131 17.8583 17.4363C17.8833 18.1097 17.5833 18.8489 17.0833 19.3006Z" fill="white"/>
</svg>
