<svg width="30" height="30" viewBox="0 0 30 30" fill="none" xmlns="http://www.w3.org/2000/svg">
<ellipse cx="14.8837" cy="15" rx="14.8837" ry="15" fill="#F03B7A"/>
<path d="M19.6688 18.1658L20.1094 15.6158C20.1352 15.4664 20.1281 15.3131 20.0886 15.1666C20.049 15.0202 19.9779 14.8842 19.8803 14.7681C19.7826 14.652 19.6608 14.5587 19.5233 14.4946C19.3859 14.4305 19.2361 14.3972 19.0844 14.3971H15.8456C15.7701 14.397 15.6955 14.3805 15.627 14.3487C15.5585 14.3169 15.4977 14.2706 15.4489 14.213C15.4001 14.1554 15.3644 14.0878 15.3443 14.015C15.3242 13.9422 15.3202 13.8659 15.3325 13.7914L15.7469 11.2633C15.8142 10.8528 15.795 10.4328 15.6906 10.0302C15.6459 9.86374 15.5599 9.71131 15.4404 9.58706C15.321 9.46282 15.1721 9.3708 15.0075 9.31957L14.9169 9.29019C14.7122 9.22454 14.4901 9.23975 14.2963 9.33269C14.0838 9.43519 13.9288 9.62207 13.8713 9.84394L13.5738 10.9902C13.479 11.355 13.3414 11.7072 13.1638 12.0396C12.9038 12.5252 12.5025 12.9146 12.0856 13.2739L11.1856 14.0489C11.0609 14.1568 10.9634 14.2926 10.9013 14.4454C10.8391 14.5981 10.8141 14.7634 10.8281 14.9277L11.3363 20.7983C11.3586 21.0578 11.4774 21.2996 11.6693 21.4758C11.8611 21.652 12.112 21.7499 12.3725 21.7502H15.2781C17.4538 21.7502 19.3106 20.2339 19.6681 18.1658H19.6688Z" fill="white"/>
<path opacity="0.5" fill-rule="evenodd" clip-rule="evenodd" d="M8.855 13.9282C8.97579 13.9229 9.09395 13.9645 9.18479 14.0443C9.27564 14.1241 9.33214 14.2358 9.3425 14.3563L9.94875 21.3788C9.95902 21.4834 9.94787 21.589 9.91597 21.6891C9.88407 21.7892 9.83209 21.8818 9.76322 21.9611C9.69434 22.0405 9.61001 22.105 9.51538 22.1506C9.42075 22.1963 9.3178 22.2222 9.21282 22.2268C9.10784 22.2313 9.00303 22.2144 8.9048 22.1771C8.80657 22.1398 8.71697 22.0829 8.64149 22.0098C8.56601 21.9367 8.50621 21.8489 8.46577 21.7519C8.42532 21.655 8.40507 21.5508 8.40625 21.4457V14.3963C8.4063 14.2755 8.45301 14.1593 8.53662 14.0721C8.62023 13.9849 8.73429 13.9333 8.855 13.9282Z" fill="white"/>
</svg>
