<svg width="30" height="30" viewBox="0 0 30 30" fill="none" xmlns="http://www.w3.org/2000/svg">
<ellipse cx="15" cy="14.8949" rx="15" ry="14.8949" fill="#F03B7A"/>
<path d="M15 8.10306C12.03 8.10306 9.79166 10.1346 9.79166 12.4474V13.6986C9.8609 13.6919 9.93042 13.6886 9.99999 13.6887H11.6667C11.9982 13.6887 12.3161 13.8194 12.5505 14.0522C12.785 14.285 12.9167 14.6007 12.9167 14.9299V19.0674C12.9167 19.3966 12.785 19.7123 12.5505 19.9451C12.3161 20.1778 11.9982 20.3086 11.6667 20.3086H9.99999C9.44746 20.3086 8.91755 20.0907 8.52685 19.7027C8.13615 19.3147 7.91666 18.7885 7.91666 18.2399V15.7574C7.91666 15.1781 8.15582 14.6552 8.54166 14.2803V12.4474C8.54166 9.27645 11.5267 6.86182 15 6.86182C18.4733 6.86182 21.4583 9.27645 21.4583 12.4474V14.2803C21.6565 14.4726 21.814 14.7024 21.9213 14.9561C22.0287 15.2098 22.0837 15.4822 22.0833 15.7574V18.2399C22.0833 18.5116 22.0294 18.7806 21.9247 19.0316C21.82 19.2825 21.6666 19.5106 21.4731 19.7027C21.2797 19.8948 21.05 20.0472 20.7972 20.1511C20.5445 20.2551 20.2736 20.3086 20 20.3086H18.3333C18.0018 20.3086 17.6839 20.1778 17.4494 19.9451C17.215 19.7123 17.0833 19.3966 17.0833 19.0674V14.9299C17.0833 14.6007 17.215 14.285 17.4494 14.0522C17.6839 13.8194 18.0018 13.6887 18.3333 13.6887H20C20.07 13.6887 20.14 13.692 20.2083 13.6986V12.4474C20.2083 10.1346 17.97 8.10306 15 8.10306Z" fill="white"/>
</svg>
