<svg width="25" height="25" viewBox="0 0 25 25" fill="none" xmlns="http://www.w3.org/2000/svg">
<rect width="25" height="25" rx="12.5" fill="#111111"/>
<g clip-path="url(#clip0_82_1571)">
<path d="M0 12.5C0 19.4052 5.59476 25 12.5 25C19.4052 25 25 19.4052 25 12.5C25 5.59476 19.4052 0 12.5 0C5.59476 0 0 5.59476 0 12.5ZM10.0806 10.0806C10.0806 10.9728 9.35988 11.6935 8.46774 11.6935C7.5756 11.6935 6.85484 10.9728 6.85484 10.0806C6.85484 9.18851 7.5756 8.46774 8.46774 8.46774C9.35988 8.46774 10.0806 9.18851 10.0806 10.0806ZM18.0696 10.9123C17.3236 10.247 15.7409 10.247 14.995 10.9123L14.5161 11.3407C14.0978 11.7137 13.4274 11.3609 13.5181 10.7964C13.7198 9.52621 15.2419 8.6744 16.5373 8.6744C17.8327 8.6744 19.3548 9.52621 19.5565 10.7964C19.6421 11.3558 18.9819 11.7188 18.5585 11.3407L18.0696 10.9123ZM7.95363 16.0181C9.08266 17.374 10.7359 18.1452 12.5 18.1452C14.2641 18.1452 15.9173 17.369 17.0464 16.0181C17.7319 15.2016 18.9667 16.2298 18.2863 17.0514C16.8498 18.7702 14.7429 19.7581 12.5 19.7581C10.2571 19.7581 8.1502 18.7702 6.71371 17.0464C6.03327 16.2248 7.27823 15.1966 7.95363 16.0181Z" fill="#15D916"/>
</g>
<defs>
<clipPath id="clip0_82_1571">
<rect width="25" height="25" fill="white"/>
</clipPath>
</defs>
</svg>
