<svg width="30" height="30" viewBox="0 0 30 30" fill="none" xmlns="http://www.w3.org/2000/svg">
<ellipse cx="14.8837" cy="15" rx="14.8837" ry="15" fill="#F03B7A"/>
<g clip-path="url(#clip0_52_1046)">
<path d="M10.0388 11.5C10.0388 11.3674 10.0914 11.2402 10.1852 11.1464C10.279 11.0527 10.4061 11 10.5388 11H17.5388C17.6714 11 17.7985 11.0527 17.8923 11.1464C17.9861 11.2402 18.0388 11.3674 18.0388 11.5C18.0388 11.6326 17.9861 11.7598 17.8923 11.8536C17.7985 11.9473 17.6714 12 17.5388 12H10.5388C10.4061 12 10.279 11.9473 10.1852 11.8536C10.0914 11.7598 10.0388 11.6326 10.0388 11.5ZM15.5388 14C15.4061 14 15.279 14.0527 15.1852 14.1464C15.0914 14.2402 15.0388 14.3674 15.0388 14.5C15.0388 14.6326 15.0914 14.7598 15.1852 14.8536C15.279 14.9473 15.4061 15 15.5388 15H17.5388C17.6714 15 17.7985 14.9473 17.8923 14.8536C17.9861 14.7598 18.0388 14.6326 18.0388 14.5C18.0388 14.3674 17.9861 14.2402 17.8923 14.1464C17.7985 14.0527 17.6714 14 17.5388 14H15.5388ZM15.0388 17.5C15.0388 17.3674 15.0914 17.2402 15.1852 17.1464C15.279 17.0527 15.4061 17 15.5388 17H17.5388C17.6714 17 17.7985 17.0527 17.8923 17.1464C17.9861 17.2402 18.0388 17.3674 18.0388 17.5C18.0388 17.6326 17.9861 17.7598 17.8923 17.8536C17.7985 17.9473 17.6714 18 17.5388 18H15.5388C15.4061 18 15.279 17.9473 15.1852 17.8536C15.0914 17.7598 15.0388 17.6326 15.0388 17.5ZM10.5388 14C10.4061 14 10.279 14.0527 10.1852 14.1464C10.0914 14.2402 10.0388 14.3674 10.0388 14.5V17.5C10.0388 17.6326 10.0914 17.7598 10.1852 17.8536C10.279 17.9473 10.4061 18 10.5388 18H13.5388C13.6714 18 13.7985 17.9473 13.8923 17.8536C13.9861 17.7598 14.0388 17.6326 14.0388 17.5V14.5C14.0388 14.3674 13.9861 14.2402 13.8923 14.1464C13.7985 14.0527 13.6714 14 13.5388 14H10.5388ZM11.0388 17V15H13.0388V17H11.0388ZM7.03876 10C7.03876 9.46957 7.24947 8.96086 7.62454 8.58579C7.99962 8.21071 8.50832 8 9.03876 8H19.0388C19.5692 8 20.0779 8.21071 20.453 8.58579C20.828 8.96086 21.0388 9.46957 21.0388 10V11C21.5692 11 22.0779 11.2107 22.453 11.5858C22.828 11.9609 23.0388 12.4696 23.0388 13V18.5C23.0388 19.163 22.7754 19.7989 22.3065 20.2678C21.8377 20.7366 21.2018 21 20.5388 21H9.53876C8.87572 21 8.23983 20.7366 7.77099 20.2678C7.30215 19.7989 7.03876 19.163 7.03876 18.5V10ZM20.0388 10C20.0388 9.73478 19.9334 9.48043 19.7459 9.29289C19.5583 9.10536 19.304 9 19.0388 9H9.03876C8.77354 9 8.51919 9.10536 8.33165 9.29289C8.14411 9.48043 8.03876 9.73478 8.03876 10V18.5C8.03876 18.8978 8.19679 19.2794 8.4781 19.5607C8.7594 19.842 9.14093 20 9.53876 20H20.5388C20.9366 20 21.3181 19.842 21.5994 19.5607C21.8807 19.2794 22.0388 18.8978 22.0388 18.5V13C22.0388 12.7348 21.9334 12.4804 21.7459 12.2929C21.5583 12.1054 21.304 12 21.0388 12V18.5C21.0388 18.6326 20.9861 18.7598 20.8923 18.8536C20.7985 18.9473 20.6714 19 20.5388 19C20.4061 19 20.279 18.9473 20.1852 18.8536C20.0914 18.7598 20.0388 18.6326 20.0388 18.5V10Z" fill="white"/>
</g>
<defs>
<clipPath id="clip0_52_1046">
<rect x="5" y="5" width="19.845" height="20" rx="9.92248" fill="white"/>
</clipPath>
</defs>
</svg>
