<svg width="31" height="30" viewBox="0 0 31 30" fill="none" xmlns="http://www.w3.org/2000/svg">
<ellipse cx="15.0352" cy="15" rx="15.0352" ry="15" fill="#F03B7A"/>
<path fill-rule="evenodd" clip-rule="evenodd" d="M12.8677 7.41422C13.4485 6.92042 14.1813 6.63988 14.9442 6.61927C15.7071 6.59865 16.454 6.83919 17.0608 7.30089L17.2028 7.41422L17.5169 7.68089C17.7455 7.87558 18.0225 8.00514 18.3188 8.05589L18.4675 8.07422L18.8793 8.10756C19.6421 8.16828 20.3609 8.48842 20.9156 9.01446C21.4702 9.5405 21.827 10.2405 21.9264 10.9976L21.9439 11.1642L21.9774 11.5759C22.001 11.8745 22.1049 12.1612 22.2781 12.4059L22.3699 12.5242L22.6389 12.8376C23.1339 13.4171 23.4151 14.1481 23.4357 14.9092C23.4564 15.6703 23.2153 16.4155 22.7525 17.0209L22.6389 17.1626L22.3708 17.4759C22.1756 17.704 22.0458 17.9803 21.9949 18.2759L21.9765 18.4242L21.9439 18.8351C21.8831 19.5961 21.5622 20.3133 21.0349 20.8666C20.5076 21.4199 19.806 21.7759 19.0472 21.8751L18.8793 21.8926L18.4675 21.9259C18.1682 21.9495 17.8808 22.0531 17.6355 22.2259L17.5169 22.3184L17.202 22.5851C16.6212 23.079 15.8885 23.3597 15.1256 23.3804C14.3627 23.4012 13.6157 23.1608 13.0088 22.6992L12.8677 22.5859L12.5536 22.3184C12.325 22.1237 12.048 21.9941 11.7517 21.9434L11.603 21.9259L11.1912 21.8926C10.4284 21.8318 9.70956 21.5117 9.15492 20.9857C8.60028 20.4596 8.24346 19.7596 8.1441 19.0026L8.12656 18.8359L8.09315 18.4242C8.06949 18.1256 7.96562 17.8389 7.79244 17.5942L7.69973 17.4759L7.4316 17.1617C6.93664 16.5822 6.65544 15.8511 6.63477 15.0901C6.6141 14.329 6.85521 13.5838 7.318 12.9784L7.4316 12.8376L7.69889 12.5242C7.89404 12.2961 8.0239 12.0198 8.07477 11.7242L8.09315 11.5759L8.12656 11.1651C8.18743 10.404 8.50832 9.68685 9.03559 9.13351C9.56287 8.58017 10.2646 8.22418 11.0233 8.12506L11.1904 8.10756L11.603 8.07422C11.9023 8.05062 12.1897 7.94699 12.435 7.77422L12.5536 7.68172L12.8677 7.41422ZM17.1235 15.8334C16.7912 15.8334 16.4725 15.9651 16.2375 16.1995C16.0025 16.4339 15.8705 16.7519 15.8705 17.0834C15.8705 17.4149 16.0025 17.7329 16.2375 17.9673C16.4725 18.2017 16.7912 18.3334 17.1235 18.3334C17.4558 18.3334 17.7745 18.2017 18.0094 17.9673C18.2444 17.7329 18.3764 17.4149 18.3764 17.0834C18.3764 16.7519 18.2444 16.4339 18.0094 16.1995C17.7745 15.9651 17.4558 15.8334 17.1235 15.8334ZM16.9506 11.9109L11.9388 16.9109C11.8591 16.9878 11.7954 17.0797 11.7516 17.1814C11.7079 17.2831 11.6848 17.3924 11.6839 17.5031C11.6829 17.6137 11.704 17.7234 11.746 17.8259C11.788 17.9283 11.85 18.0213 11.9285 18.0996C12.0069 18.1778 12.1002 18.2397 12.2028 18.2816C12.3055 18.3235 12.4155 18.3446 12.5264 18.3436C12.6373 18.3426 12.7469 18.3196 12.8488 18.276C12.9507 18.2323 13.0429 18.1688 13.1199 18.0892L18.1317 13.0892C18.2838 12.9321 18.368 12.7216 18.3661 12.5031C18.3642 12.2846 18.2764 12.0755 18.1215 11.921C17.9666 11.7665 17.7571 11.6789 17.5381 11.677C17.3191 11.6751 17.1081 11.7591 16.9506 11.9109ZM12.947 11.6667C12.6147 11.6667 12.296 11.7984 12.0611 12.0328C11.8261 12.2673 11.6941 12.5852 11.6941 12.9167C11.6941 13.2482 11.8261 13.5662 12.0611 13.8006C12.296 14.035 12.6147 14.1667 12.947 14.1667C13.2793 14.1667 13.598 14.035 13.833 13.8006C14.068 13.5662 14.2 13.2482 14.2 12.9167C14.2 12.5852 14.068 12.2673 13.833 12.0328C13.598 11.7984 13.2793 11.6667 12.947 11.6667Z" fill="white"/>
</svg>
