<svg width="30" height="30" viewBox="0 0 30 30" fill="none" xmlns="http://www.w3.org/2000/svg">
<circle cx="15" cy="15" r="15" fill="#F03B7A"/>
<path d="M13.3333 7.5H8.33333C8.11232 7.5 7.90036 7.5878 7.74408 7.74408C7.5878 7.90036 7.5 8.11232 7.5 8.33333V13.3333C7.5 13.5543 7.5878 13.7663 7.74408 13.9226C7.90036 14.0789 8.11232 14.1667 8.33333 14.1667H13.3333C13.5543 14.1667 13.7663 14.0789 13.9226 13.9226C14.0789 13.7663 14.1667 13.5543 14.1667 13.3333V8.33333C14.1667 8.11232 14.0789 7.90036 13.9226 7.74408C13.7663 7.5878 13.5543 7.5 13.3333 7.5ZM21.6667 15.8333H16.6667C16.4457 15.8333 16.2337 15.9211 16.0774 16.0774C15.9211 16.2337 15.8333 16.4457 15.8333 16.6667V21.6667C15.8333 21.8877 15.9211 22.0996 16.0774 22.2559C16.2337 22.4122 16.4457 22.5 16.6667 22.5H21.6667C21.8877 22.5 22.0996 22.4122 22.2559 22.2559C22.4122 22.0996 22.5 21.8877 22.5 21.6667V16.6667C22.5 16.4457 22.4122 16.2337 22.2559 16.0774C22.0996 15.9211 21.8877 15.8333 21.6667 15.8333ZM19.1667 7.5C17.3283 7.5 15.8333 8.995 15.8333 10.8333C15.8333 12.6717 17.3283 14.1667 19.1667 14.1667C21.005 14.1667 22.5 12.6717 22.5 10.8333C22.5 8.995 21.005 7.5 19.1667 7.5ZM10.8333 15.8333C8.995 15.8333 7.5 17.3283 7.5 19.1667C7.5 21.005 8.995 22.5 10.8333 22.5C12.6717 22.5 14.1667 21.005 14.1667 19.1667C14.1667 17.3283 12.6717 15.8333 10.8333 15.8333Z" fill="white"/>
</svg>
